<svg width="18" height="18" viewBox="0 0 18 18" fill="none" xmlns="http://www.w3.org/2000/svg">
<path d="M12.6025 5.06445V10.5679C12.6025 10.9054 12.6496 11.16 12.7437 11.3315C12.8433 11.5031 12.9595 11.6304 13.0923 11.7134C13.2251 11.7909 13.3939 11.8296 13.5986 11.8296C14.0081 11.8296 14.3485 11.7189 14.6196 11.4976C14.8908 11.2707 15.1066 10.9995 15.2671 10.6841C15.4276 10.3687 15.5382 10.0449 15.5991 9.71289C15.6655 9.37533 15.6987 8.95752 15.6987 8.45947C15.6987 7.89502 15.6185 7.34993 15.458 6.82422C15.2975 6.29297 15.0706 5.79492 14.7773 5.33008C14.4896 4.8597 14.141 4.43083 13.7314 4.04346C13.3219 3.65055 12.8654 3.31576 12.3618 3.03906C11.8582 2.75684 11.3159 2.53825 10.7349 2.3833C10.1538 2.22835 9.54785 2.15088 8.91699 2.15088C8.29167 2.15088 7.68848 2.23112 7.10742 2.3916C6.5319 2.55208 5.99235 2.77897 5.48877 3.07227C4.99072 3.36556 4.53418 3.71696 4.11914 4.12646C3.70964 4.53597 3.35824 4.99251 3.06494 5.49609C2.77718 5.99414 2.55306 6.53092 2.39258 7.10645C2.2321 7.68197 2.15186 8.27962 2.15186 8.89941C2.15186 9.52474 2.2321 10.1279 2.39258 10.709C2.55306 11.2845 2.77718 11.8241 3.06494 12.3276C3.35824 12.8312 3.70964 13.2878 4.11914 13.6973C4.53418 14.1068 4.99072 14.4582 5.48877 14.7515C5.99235 15.0448 6.5319 15.2716 7.10742 15.4321C7.68848 15.5926 8.29167 15.6729 8.91699 15.6729C9.55339 15.6729 10.1676 15.5871 10.7598 15.4155C11.3519 15.2495 11.9053 15.0116 12.4199 14.7017L13.2002 16.0049C12.5749 16.3867 11.8997 16.68 11.1748 16.8848C10.4554 17.0951 9.7028 17.2002 8.91699 17.2002C8.15332 17.2002 7.41732 17.1006 6.70898 16.9014C6.00065 16.7077 5.33936 16.431 4.7251 16.0713C4.11084 15.7116 3.54915 15.2772 3.04004 14.7681C2.53646 14.2645 2.10482 13.7056 1.74512 13.0913C1.38542 12.4771 1.10596 11.8158 0.906738 11.1074C0.713053 10.3991 0.616211 9.66309 0.616211 8.89941C0.616211 8.14128 0.713053 7.41081 0.906738 6.70801C1.10596 5.99967 1.38542 5.33838 1.74512 4.72412C2.10482 4.10986 2.53646 3.55094 3.04004 3.04736C3.54915 2.54378 4.11084 2.11214 4.7251 1.75244C5.33936 1.39274 6.00065 1.11605 6.70898 0.922363C7.41732 0.723145 8.15332 0.623535 8.91699 0.623535C9.69173 0.623535 10.4333 0.720378 11.1416 0.914062C11.8555 1.10221 12.5195 1.36784 13.1338 1.71094C13.748 2.05404 14.307 2.46631 14.8105 2.94775C15.3141 3.4292 15.743 3.96045 16.0972 4.5415C16.4569 5.12256 16.7336 5.74512 16.9272 6.40918C17.1265 7.06771 17.2261 7.75114 17.2261 8.45947C17.2261 8.83577 17.1901 9.21484 17.1182 9.59668C17.0462 9.97852 16.9383 10.3438 16.7944 10.6924C16.6506 11.041 16.4735 11.3675 16.2632 11.6719C16.0584 11.9762 15.8177 12.2419 15.541 12.4688C15.2699 12.6901 14.9683 12.8672 14.6362 13C14.3042 13.1273 13.9445 13.1909 13.5571 13.1909C13.048 13.1909 12.6219 13.0802 12.2788 12.8589C11.9357 12.6375 11.6673 12.3525 11.4736 12.0039C11.125 12.2917 10.7321 12.5158 10.2949 12.6763C9.85775 12.8368 9.38737 12.917 8.88379 12.917C8.30273 12.917 7.76872 12.8174 7.28174 12.6182C6.80029 12.4134 6.38249 12.134 6.02832 11.7798C5.67415 11.4256 5.39746 11.0133 5.19824 10.543C5.00456 10.0726 4.90771 9.56624 4.90771 9.02393C4.90771 8.48714 5.01009 7.98356 5.21484 7.51318C5.4196 7.03727 5.69906 6.62223 6.05322 6.26807C6.41292 5.9139 6.8335 5.63444 7.31494 5.42969C7.80192 5.2194 8.32487 5.11426 8.88379 5.11426C9.28776 5.11426 9.67513 5.1696 10.0459 5.28027C10.4167 5.39095 10.7598 5.54867 11.0752 5.75342V5.06445H12.6025ZM8.88379 11.3813C9.40397 11.3813 9.85221 11.2624 10.2285 11.0244C10.6048 10.7809 10.887 10.4683 11.0752 10.0864V7.98633C10.9811 7.79264 10.8594 7.61279 10.71 7.44678C10.5661 7.28076 10.4001 7.13965 10.2119 7.02344C10.0238 6.90169 9.81624 6.80762 9.58936 6.74121C9.368 6.6748 9.13281 6.6416 8.88379 6.6416C8.52962 6.6416 8.20312 6.70524 7.9043 6.83252C7.60547 6.9598 7.34538 7.13135 7.12402 7.34717C6.9082 7.56299 6.73942 7.81755 6.61768 8.11084C6.49593 8.3986 6.43506 8.70296 6.43506 9.02393C6.43506 9.35042 6.49316 9.65755 6.60938 9.94531C6.72559 10.2275 6.88883 10.4766 7.09912 10.6924C7.31494 10.9027 7.57227 11.0715 7.87109 11.1987C8.17546 11.3205 8.51302 11.3813 8.88379 11.3813Z" fill="black"/>
</svg>
